<svg width="17" height="19" viewBox="0 0 17 19" fill="none" xmlns="http://www.w3.org/2000/svg">
<path fill-rule="evenodd" clip-rule="evenodd" d="M16.1455 16.2781C15.8619 16.7311 15.5127 17.1093 15.1214 17.4202C15.2096 16.8848 15.2563 16.3181 15.2626 15.6835C15.2053 14.2273 14.8988 13.2035 14.268 11.9907C12.9696 9.73272 11.3173 8.43754 9.34075 7.1433C7.50742 5.99805 5.72405 5.12943 3.79737 4.23525C3.18347 3.89865 2.50835 3.60666 1.88198 3.272C1.71303 3.18191 1.55578 3.05586 1.39612 2.95119C1.28833 2.85836 1.32278 2.88491 1.35831 3.03764C1.3099 3.09842 1.2962 2.8873 1.28617 2.54912C3.39494 -0.426527 8.26538 0.0691926 12.3137 3.71616C16.4578 7.45131 18.1716 13.0726 16.1455 16.2781ZM14.8996 17.5805C14.9719 16.9915 14.9774 16.3894 14.9147 15.7113C14.7532 14.3712 14.401 13.4693 13.7203 12.4273C12.2915 10.5087 10.6303 9.50584 8.67713 8.52279C6.7927 7.75066 4.93329 6.85121 2.97954 6.31912C2.25205 6.04126 1.51945 5.76336 0.808329 5.43367C0.744988 5.39652 0.528315 5.27249 0.336629 5.15208C-0.025934 8.3206 1.73015 12.4006 4.97121 15.3219C8.42599 18.4318 12.4732 19.2483 14.8996 17.5805Z" fill="#733612"/>
</svg>
