<svg width="25" height="34" viewBox="0 0 25 34" fill="none" xmlns="http://www.w3.org/2000/svg">
<path fill-rule="evenodd" clip-rule="evenodd" d="M7.01069 32.8916C7.84179 33.2973 8.70838 33.5412 9.58088 33.6536C8.97798 32.9659 8.41157 32.1988 7.84776 31.3008C6.66463 29.1798 6.24181 27.4642 6.15194 25.2061C6.17531 20.8974 7.58263 17.6608 9.48898 14.152C11.3054 10.976 13.2865 8.23595 15.4654 5.33863C16.1146 4.3419 16.8967 3.35705 17.5668 2.35255C17.7476 2.08185 17.8791 1.76985 18.033 1.48625C18.1176 1.26323 18.0878 1.33007 18.1666 1.57741C18.294 1.6231 18.1307 1.31107 17.8509 0.821259C12.014 -1.63591 4.96533 3.17646 1.93039 11.7809C-1.17451 20.5915 1.10018 30.0375 7.01069 32.8916ZM10.0614 33.6948C9.43636 32.9174 8.90226 32.065 8.40653 31.047C7.48478 29.0034 7.23845 27.4227 7.3744 25.3657C7.89432 21.43 9.57053 18.602 11.7126 15.5559C13.9332 12.8679 16.0042 10.0198 18.5409 7.61506C19.4158 6.60614 20.2985 5.59287 21.1031 4.52398C21.1679 4.4177 21.3925 4.05846 21.5818 3.72544C24.9048 7.92956 25.769 15.2174 23.3407 22.1083C20.7487 29.4478 15.2447 34.0226 10.0614 33.6948Z" fill="#C95E20"/>
</svg>
