<svg width="330" height="134" viewBox="0 0 330 134" fill="none" xmlns="http://www.w3.org/2000/svg">
<g filter="url(#filter0_d_6_340)">
<rect x="32" y="20" width="266" height="70" rx="8" fill="white" shape-rendering="crispEdges"/>
<g filter="url(#filter1_di_6_340)">
<circle cx="64" cy="50" r="16" fill="url(#paint0_linear_6_340)"/>
</g>
<path d="M73.1616 52.5397C73.1441 52.5163 73.1253 52.4946 73.1051 52.4737C72.5237 51.7467 71.4727 51.6007 70.7398 52.1508C69.6836 52.9293 67.8765 54.2392 67.2734 54.6764L64.6387 54.4699L66.2507 54.117C67.1142 53.9914 67.7332 53.2295 67.6958 52.3302C67.6956 52.3206 67.6949 52.3111 67.694 52.3018C67.6192 51.4032 66.889 50.7256 65.9958 50.7256H61.1205C60.7244 50.7256 60.3548 50.827 60.0219 51.0268C60.0086 51.0349 59.9954 51.0433 59.9825 51.0524L54.7897 54.6805C54.4818 54.8957 54.4065 55.32 54.6217 55.6277C54.8366 55.9358 55.2611 56.0114 55.5688 55.7957L60.7398 52.1828C60.855 52.1177 60.9797 52.0857 61.1207 52.0857H65.996C66.177 52.0857 66.3153 52.2145 66.3371 52.4004C66.3387 52.5641 66.2505 52.746 66.0477 52.7714C66.0273 52.7739 66.0069 52.7773 65.9867 52.7818L63.0842 53.4167C62.8577 53.4664 62.672 53.6278 62.5915 53.8453C62.511 54.063 62.5468 54.3065 62.6867 54.4915L63.4577 55.5119C63.5749 55.6673 63.7532 55.765 63.9473 55.7802L67.4166 56.0523C67.5772 56.0639 67.738 56.0196 67.8686 55.9251C67.8923 55.9078 70.2668 54.1892 71.5513 53.2425C71.698 53.1326 71.9314 53.1743 72.05 53.333C72.0631 53.3505 72.0772 53.3674 72.0919 53.3833C72.1833 53.5328 72.1484 53.7244 72.0035 53.833L67.402 57.3014C67.2666 57.4027 67.1255 57.4413 66.9643 57.4199L60.2523 56.581C60.0691 56.5581 59.8849 56.6105 59.7412 56.7261L57.1788 58.7898C56.8861 59.0256 56.84 59.454 57.0757 59.7465C57.2099 59.9133 57.407 60 57.6058 60C57.7557 60 57.9065 59.9508 58.0319 59.8499L60.3696 57.9671L66.7898 58.7696C67.3018 58.8378 67.7952 58.7065 68.219 58.3891L72.8213 54.9208C73.5716 54.358 73.7242 53.29 73.1616 52.5397Z" fill="white"/>
<path d="M67.1065 42.3583C66.7307 42.3583 66.4262 42.6629 66.4262 43.0386V47.1203C66.4262 47.496 66.7307 47.8005 67.1065 47.8005C67.4822 47.8005 67.7868 47.496 67.7868 47.1203V43.0386C67.7868 42.6629 67.4822 42.3583 67.1065 42.3583Z" fill="white"/>
<path d="M69.1473 44.399H65.0656C64.6899 44.399 64.3854 44.7035 64.3854 45.0793C64.3854 45.455 64.6899 45.7595 65.0656 45.7595H69.1473C69.523 45.7595 69.8276 45.455 69.8276 45.0793C69.8276 44.7035 69.523 44.399 69.1473 44.399Z" fill="white"/>
<path d="M67.1065 40C64.3056 40 62.0273 42.2785 62.0273 45.0794C62.0273 47.8803 64.3056 50.1587 67.1065 50.1587C69.9071 50.1587 72.1859 47.8803 72.1859 45.0794C72.1859 42.2784 69.9074 40 67.1065 40ZM67.1065 48.7982C65.0559 48.7982 63.3879 47.13 63.3879 45.0794C63.3879 43.0288 65.0559 41.3605 67.1065 41.3605C69.157 41.3605 70.8253 43.0288 70.8253 45.0794C70.8253 47.13 69.1571 48.7982 67.1065 48.7982Z" fill="white"/>
<path d="M96.592 46.416C96.592 45.328 96.8427 44.352 97.344 43.488C97.856 42.624 98.544 41.952 99.408 41.472C100.283 40.9813 101.237 40.736 102.272 40.736C103.456 40.736 104.507 41.0293 105.424 41.616C106.352 42.192 107.024 43.0133 107.44 44.08H105.248C104.96 43.4933 104.56 43.056 104.048 42.768C103.536 42.48 102.944 42.336 102.272 42.336C101.536 42.336 100.88 42.5013 100.304 42.832C99.728 43.1627 99.2747 43.6373 98.944 44.256C98.624 44.8747 98.464 45.5947 98.464 46.416C98.464 47.2373 98.624 47.9573 98.944 48.576C99.2747 49.1947 99.728 49.6747 100.304 50.016C100.88 50.3467 101.536 50.512 102.272 50.512C102.944 50.512 103.536 50.368 104.048 50.08C104.56 49.792 104.96 49.3547 105.248 48.768H107.44C107.024 49.8347 106.352 50.656 105.424 51.232C104.507 51.808 103.456 52.096 102.272 52.096C101.227 52.096 100.272 51.856 99.408 51.376C98.544 50.8853 97.856 50.208 97.344 49.344C96.8427 48.48 96.592 47.504 96.592 46.416ZM113.399 52.144C112.567 52.144 111.815 51.9573 111.143 51.584C110.471 51.2 109.943 50.6667 109.559 49.984C109.175 49.2907 108.983 48.4907 108.983 47.584C108.983 46.688 109.18 45.8933 109.575 45.2C109.97 44.5067 110.508 43.9733 111.191 43.6C111.874 43.2267 112.636 43.04 113.479 43.04C114.322 43.04 115.084 43.2267 115.767 43.6C116.45 43.9733 116.988 44.5067 117.383 45.2C117.778 45.8933 117.975 46.688 117.975 47.584C117.975 48.48 117.772 49.2747 117.367 49.968C116.962 50.6613 116.407 51.2 115.703 51.584C115.01 51.9573 114.242 52.144 113.399 52.144ZM113.399 50.56C113.868 50.56 114.306 50.448 114.711 50.224C115.127 50 115.463 49.664 115.719 49.216C115.975 48.768 116.103 48.224 116.103 47.584C116.103 46.944 115.98 46.4053 115.735 45.968C115.49 45.52 115.164 45.184 114.759 44.96C114.354 44.736 113.916 44.624 113.447 44.624C112.978 44.624 112.54 44.736 112.135 44.96C111.74 45.184 111.426 45.52 111.191 45.968C110.956 46.4053 110.839 46.944 110.839 47.584C110.839 48.5333 111.079 49.2693 111.559 49.792C112.05 50.304 112.663 50.56 113.399 50.56ZM124.226 43.04C124.919 43.04 125.538 43.184 126.082 43.472C126.637 43.76 127.069 44.1867 127.378 44.752C127.687 45.3173 127.842 46 127.842 46.8V52H126.034V47.072C126.034 46.2827 125.837 45.68 125.442 45.264C125.047 44.8373 124.509 44.624 123.826 44.624C123.143 44.624 122.599 44.8373 122.194 45.264C121.799 45.68 121.602 46.2827 121.602 47.072V52H119.778V43.184H121.602V44.192C121.901 43.8293 122.279 43.5467 122.738 43.344C123.207 43.1413 123.703 43.04 124.226 43.04ZM133.865 44.672H132.233V52H130.393V44.672H129.353V43.184H130.393V42.56C130.393 41.5467 130.659 40.8107 131.193 40.352C131.737 39.8827 132.585 39.648 133.737 39.648V41.168C133.182 41.168 132.793 41.2747 132.569 41.488C132.345 41.6907 132.233 42.048 132.233 42.56V43.184H133.865V44.672ZM136.409 42.016C136.079 42.016 135.801 41.904 135.577 41.68C135.353 41.456 135.241 41.1787 135.241 40.848C135.241 40.5173 135.353 40.24 135.577 40.016C135.801 39.792 136.079 39.68 136.409 39.68C136.729 39.68 137.001 39.792 137.225 40.016C137.449 40.24 137.561 40.5173 137.561 40.848C137.561 41.1787 137.449 41.456 137.225 41.68C137.001 41.904 136.729 42.016 136.409 42.016ZM137.305 43.184V52H135.481V43.184H137.305ZM139.092 47.552C139.092 46.6667 139.273 45.8827 139.636 45.2C140.009 44.5173 140.511 43.9893 141.14 43.616C141.78 43.232 142.484 43.04 143.252 43.04C143.945 43.04 144.548 43.1787 145.06 43.456C145.583 43.7227 145.999 44.0587 146.308 44.464V43.184H148.148V52H146.308V50.688C145.999 51.104 145.577 51.4507 145.044 51.728C144.511 52.0053 143.903 52.144 143.22 52.144C142.463 52.144 141.769 51.952 141.14 51.568C140.511 51.1733 140.009 50.6293 139.636 49.936C139.273 49.232 139.092 48.4373 139.092 47.552ZM146.308 47.584C146.308 46.976 146.18 46.448 145.924 46C145.679 45.552 145.353 45.2107 144.948 44.976C144.543 44.7413 144.105 44.624 143.636 44.624C143.167 44.624 142.729 44.7413 142.324 44.976C141.919 45.2 141.588 45.536 141.332 45.984C141.087 46.4213 140.964 46.944 140.964 47.552C140.964 48.16 141.087 48.6933 141.332 49.152C141.588 49.6107 141.919 49.9627 142.324 50.208C142.74 50.4427 143.177 50.56 143.636 50.56C144.105 50.56 144.543 50.4427 144.948 50.208C145.353 49.9733 145.679 49.632 145.924 49.184C146.18 48.7253 146.308 48.192 146.308 47.584ZM154.992 43.04C155.685 43.04 156.304 43.184 156.848 43.472C157.402 43.76 157.834 44.1867 158.144 44.752C158.453 45.3173 158.608 46 158.608 46.8V52H156.8V47.072C156.8 46.2827 156.602 45.68 156.208 45.264C155.813 44.8373 155.274 44.624 154.592 44.624C153.909 44.624 153.365 44.8373 152.96 45.264C152.565 45.68 152.368 46.2827 152.368 47.072V52H150.544V43.184H152.368V44.192C152.666 43.8293 153.045 43.5467 153.504 43.344C153.973 43.1413 154.469 43.04 154.992 43.04ZM164.646 50.608C165.702 50.608 166.401 50.144 166.742 49.216H168.71C168.476 50.0267 168.054 50.6933 167.446 51.216C166.849 51.728 166.097 52.0267 165.19 52.112V52.768C165.809 52.768 166.31 52.912 166.694 53.2C167.078 53.4987 167.27 53.9147 167.27 54.448C167.27 54.9813 167.078 55.4027 166.694 55.712C166.31 56.032 165.825 56.192 165.238 56.192H163.126V55.04H164.87C165.169 55.04 165.393 54.9973 165.542 54.912C165.692 54.8267 165.766 54.672 165.766 54.448C165.766 54.224 165.692 54.0693 165.542 53.984C165.393 53.8987 165.169 53.856 164.87 53.856H163.99V52.096C163.265 52.0107 162.625 51.7707 162.07 51.376C161.516 50.9707 161.084 50.448 160.774 49.808C160.476 49.1573 160.326 48.416 160.326 47.584C160.326 46.6773 160.508 45.8827 160.87 45.2C161.244 44.5067 161.756 43.9733 162.406 43.6C163.057 43.2267 163.804 43.04 164.646 43.04C165.713 43.04 166.593 43.296 167.286 43.808C167.99 44.3093 168.465 45.0293 168.71 45.968H166.742C166.582 45.5307 166.326 45.1893 165.974 44.944C165.622 44.6987 165.18 44.576 164.646 44.576C163.9 44.576 163.302 44.8427 162.854 45.376C162.417 45.8987 162.198 46.6347 162.198 47.584C162.198 48.5333 162.417 49.2747 162.854 49.808C163.302 50.3413 163.9 50.608 164.646 50.608ZM169.92 47.552C169.92 46.6667 170.101 45.8827 170.464 45.2C170.837 44.5173 171.339 43.9893 171.968 43.616C172.608 43.232 173.312 43.04 174.08 43.04C174.773 43.04 175.376 43.1787 175.888 43.456C176.411 43.7227 176.827 44.0587 177.136 44.464V43.184H178.976V52H177.136V50.688C176.827 51.104 176.405 51.4507 175.872 51.728C175.339 52.0053 174.731 52.144 174.048 52.144C173.291 52.144 172.597 51.952 171.968 51.568C171.339 51.1733 170.837 50.6293 170.464 49.936C170.101 49.232 169.92 48.4373 169.92 47.552ZM177.136 47.584C177.136 46.976 177.008 46.448 176.752 46C176.507 45.552 176.181 45.2107 175.776 44.976C175.371 44.7413 174.933 44.624 174.464 44.624C173.995 44.624 173.557 44.7413 173.152 44.976C172.747 45.2 172.416 45.536 172.16 45.984C171.915 46.4213 171.792 46.944 171.792 47.552C171.792 48.16 171.915 48.6933 172.16 49.152C172.416 49.6107 172.747 49.9627 173.152 50.208C173.568 50.4427 174.005 50.56 174.464 50.56C174.933 50.56 175.371 50.4427 175.776 50.208C176.181 49.9733 176.507 49.632 176.752 49.184C177.008 48.7253 177.136 48.192 177.136 47.584ZM193.608 47.376C193.608 47.7067 193.587 48.0053 193.544 48.272H186.808C186.861 48.976 187.123 49.5413 187.592 49.968C188.061 50.3947 188.637 50.608 189.32 50.608C190.301 50.608 190.995 50.1973 191.4 49.376H193.368C193.101 50.1867 192.616 50.8533 191.912 51.376C191.219 51.888 190.355 52.144 189.32 52.144C188.477 52.144 187.72 51.9573 187.048 51.584C186.387 51.2 185.864 50.6667 185.48 49.984C185.107 49.2907 184.92 48.4907 184.92 47.584C184.92 46.6773 185.101 45.8827 185.464 45.2C185.837 44.5067 186.355 43.9733 187.016 43.6C187.688 43.2267 188.456 43.04 189.32 43.04C190.152 43.04 190.893 43.2213 191.544 43.584C192.195 43.9467 192.701 44.4587 193.064 45.12C193.427 45.7707 193.608 46.5227 193.608 47.376ZM191.704 46.8C191.693 46.128 191.453 45.5893 190.984 45.184C190.515 44.7787 189.933 44.576 189.24 44.576C188.611 44.576 188.072 44.7787 187.624 45.184C187.176 45.5787 186.909 46.1173 186.824 46.8H191.704ZM198.951 47.552C198.951 46.6667 199.133 45.8827 199.495 45.2C199.869 44.5173 200.37 43.9893 200.999 43.616C201.639 43.232 202.349 43.04 203.127 43.04C203.81 43.04 204.413 43.1787 204.935 43.456C205.469 43.7333 205.879 44.0693 206.167 44.464V43.184H208.007V56.192H206.167V50.72C205.879 51.1147 205.463 51.4507 204.919 51.728C204.375 52.0053 203.757 52.144 203.063 52.144C202.306 52.144 201.613 51.952 200.983 51.568C200.365 51.1733 199.869 50.6293 199.495 49.936C199.133 49.232 198.951 48.4373 198.951 47.552ZM206.167 47.584C206.167 46.976 206.039 46.448 205.783 46C205.538 45.552 205.213 45.2107 204.807 44.976C204.402 44.7413 203.965 44.624 203.495 44.624C203.026 44.624 202.589 44.7413 202.183 44.976C201.778 45.2 201.447 45.536 201.191 45.984C200.946 46.4213 200.823 46.944 200.823 47.552C200.823 48.16 200.946 48.6933 201.191 49.152C201.447 49.6107 201.778 49.9627 202.183 50.208C202.599 50.4427 203.037 50.56 203.495 50.56C203.965 50.56 204.402 50.4427 204.807 50.208C205.213 49.9733 205.538 49.632 205.783 49.184C206.039 48.7253 206.167 48.192 206.167 47.584ZM218.387 43.184V52H216.563V50.96C216.275 51.3227 215.896 51.6107 215.427 51.824C214.968 52.0267 214.478 52.128 213.955 52.128C213.262 52.128 212.638 51.984 212.083 51.696C211.539 51.408 211.107 50.9813 210.787 50.416C210.478 49.8507 210.323 49.168 210.323 48.368V43.184H212.131V48.096C212.131 48.8853 212.328 49.4933 212.723 49.92C213.118 50.336 213.656 50.544 214.339 50.544C215.022 50.544 215.56 50.336 215.955 49.92C216.36 49.4933 216.563 48.8853 216.563 48.096V43.184H218.387ZM220.186 47.552C220.186 46.6667 220.367 45.8827 220.73 45.2C221.103 44.5173 221.604 43.9893 222.234 43.616C222.874 43.232 223.578 43.04 224.346 43.04C225.039 43.04 225.642 43.1787 226.154 43.456C226.676 43.7227 227.092 44.0587 227.402 44.464V43.184H229.242V52H227.402V50.688C227.092 51.104 226.671 51.4507 226.138 51.728C225.604 52.0053 224.996 52.144 224.314 52.144C223.556 52.144 222.863 51.952 222.234 51.568C221.604 51.1733 221.103 50.6293 220.73 49.936C220.367 49.232 220.186 48.4373 220.186 47.552ZM227.402 47.584C227.402 46.976 227.274 46.448 227.018 46C226.772 45.552 226.447 45.2107 226.042 44.976C225.636 44.7413 225.199 44.624 224.73 44.624C224.26 44.624 223.823 44.7413 223.418 44.976C223.012 45.2 222.682 45.536 222.426 45.984C222.18 46.4213 222.058 46.944 222.058 47.552C222.058 48.16 222.18 48.6933 222.426 49.152C222.682 49.6107 223.012 49.9627 223.418 50.208C223.834 50.4427 224.271 50.56 224.73 50.56C225.199 50.56 225.636 50.4427 226.042 50.208C226.447 49.9733 226.772 49.632 227.018 49.184C227.274 48.7253 227.402 48.192 227.402 47.584ZM233.462 40.16V52H231.638V40.16H233.462ZM236.784 42.016C236.454 42.016 236.176 41.904 235.952 41.68C235.728 41.456 235.616 41.1787 235.616 40.848C235.616 40.5173 235.728 40.24 235.952 40.016C236.176 39.792 236.454 39.68 236.784 39.68C237.104 39.68 237.376 39.792 237.6 40.016C237.824 40.24 237.936 40.5173 237.936 40.848C237.936 41.1787 237.824 41.456 237.6 41.68C237.376 41.904 237.104 42.016 236.784 42.016ZM237.68 43.184V52H235.856V43.184H237.68ZM239.467 47.552C239.467 46.6667 239.648 45.8827 240.011 45.2C240.384 44.5173 240.886 43.9893 241.515 43.616C242.155 43.232 242.864 43.04 243.643 43.04C244.219 43.04 244.784 43.168 245.339 43.424C245.904 43.6693 246.352 44 246.683 44.416V40.16H248.523V52H246.683V50.672C246.384 51.0987 245.968 51.4507 245.435 51.728C244.912 52.0053 244.31 52.144 243.627 52.144C242.859 52.144 242.155 51.952 241.515 51.568C240.886 51.1733 240.384 50.6293 240.011 49.936C239.648 49.232 239.467 48.4373 239.467 47.552ZM246.683 47.584C246.683 46.976 246.555 46.448 246.299 46C246.054 45.552 245.728 45.2107 245.323 44.976C244.918 44.7413 244.48 44.624 244.011 44.624C243.542 44.624 243.104 44.7413 242.699 44.976C242.294 45.2 241.963 45.536 241.707 45.984C241.462 46.4213 241.339 46.944 241.339 47.552C241.339 48.16 241.462 48.6933 241.707 49.152C241.963 49.6107 242.294 49.9627 242.699 50.208C243.115 50.4427 243.552 50.56 244.011 50.56C244.48 50.56 244.918 50.4427 245.323 50.208C245.728 49.9733 246.054 49.632 246.299 49.184C246.555 48.7253 246.683 48.192 246.683 47.584ZM250.311 47.552C250.311 46.6667 250.492 45.8827 250.855 45.2C251.228 44.5173 251.729 43.9893 252.359 43.616C252.999 43.232 253.703 43.04 254.471 43.04C255.164 43.04 255.767 43.1787 256.279 43.456C256.801 43.7227 257.217 44.0587 257.527 44.464V43.184H259.367V52H257.527V50.688C257.217 51.104 256.796 51.4507 256.263 51.728C255.729 52.0053 255.121 52.144 254.439 52.144C253.681 52.144 252.988 51.952 252.359 51.568C251.729 51.1733 251.228 50.6293 250.855 49.936C250.492 49.232 250.311 48.4373 250.311 47.552ZM257.527 47.584C257.527 46.976 257.399 46.448 257.143 46C256.897 45.552 256.572 45.2107 256.167 44.976C255.761 44.7413 255.324 44.624 254.855 44.624C254.385 44.624 253.948 44.7413 253.543 44.976C253.137 45.2 252.807 45.536 252.551 45.984C252.305 46.4213 252.183 46.944 252.183 47.552C252.183 48.16 252.305 48.6933 252.551 49.152C252.807 49.6107 253.137 49.9627 253.543 50.208C253.959 50.4427 254.396 50.56 254.855 50.56C255.324 50.56 255.761 50.4427 256.167 50.208C256.572 49.9733 256.897 49.632 257.143 49.184C257.399 48.7253 257.527 48.192 257.527 47.584ZM261.155 47.552C261.155 46.6667 261.336 45.8827 261.699 45.2C262.072 44.5173 262.573 43.9893 263.203 43.616C263.843 43.232 264.552 43.04 265.331 43.04C265.907 43.04 266.472 43.168 267.027 43.424C267.592 43.6693 268.04 44 268.371 44.416V40.16H270.211V52H268.371V50.672C268.072 51.0987 267.656 51.4507 267.123 51.728C266.6 52.0053 265.997 52.144 265.315 52.144C264.547 52.144 263.843 51.952 263.203 51.568C262.573 51.1733 262.072 50.6293 261.699 49.936C261.336 49.232 261.155 48.4373 261.155 47.552ZM268.371 47.584C268.371 46.976 268.243 46.448 267.987 46C267.741 45.552 267.416 45.2107 267.011 44.976C266.605 44.7413 266.168 44.624 265.699 44.624C265.229 44.624 264.792 44.7413 264.387 44.976C263.981 45.2 263.651 45.536 263.395 45.984C263.149 46.4213 263.027 46.944 263.027 47.552C263.027 48.16 263.149 48.6933 263.395 49.152C263.651 49.6107 263.981 49.9627 264.387 50.208C264.803 50.4427 265.24 50.56 265.699 50.56C266.168 50.56 266.605 50.4427 267.011 50.208C267.416 49.9733 267.741 49.632 267.987 49.184C268.243 48.7253 268.371 48.192 268.371 47.584ZM280.686 47.376C280.686 47.7067 280.665 48.0053 280.622 48.272H273.886C273.94 48.976 274.201 49.5413 274.67 49.968C275.14 50.3947 275.716 50.608 276.398 50.608C277.38 50.608 278.073 50.1973 278.478 49.376H280.446C280.18 50.1867 279.694 50.8533 278.99 51.376C278.297 51.888 277.433 52.144 276.398 52.144C275.556 52.144 274.798 51.9573 274.126 51.584C273.465 51.2 272.942 50.6667 272.558 49.984C272.185 49.2907 271.998 48.4907 271.998 47.584C271.998 46.6773 272.18 45.8827 272.542 45.2C272.916 44.5067 273.433 43.9733 274.094 43.6C274.766 43.2267 275.534 43.04 276.398 43.04C277.23 43.04 277.972 43.2213 278.622 43.584C279.273 43.9467 279.78 44.4587 280.142 45.12C280.505 45.7707 280.686 46.5227 280.686 47.376ZM278.782 46.8C278.772 46.128 278.532 45.5893 278.062 45.184C277.593 44.7787 277.012 44.576 276.318 44.576C275.689 44.576 275.15 44.7787 274.702 45.184C274.254 45.5787 273.988 46.1173 273.902 46.8H278.782Z" fill="#031432"/>
<path d="M110.313 66.0992L106.215 65.4722L104.377 61.553C104.24 61.2603 103.761 61.2603 103.623 61.553L101.787 65.4722L97.688 66.0992C97.3513 66.1509 97.2168 66.561 97.453 66.803L100.431 69.8598L99.7268 74.1812C99.6707 74.5245 100.037 74.7821 100.34 74.6135L104.001 72.5872L107.662 74.6141C107.962 74.781 108.331 74.5284 108.275 74.1818L107.571 69.8604L110.548 66.8036C110.785 66.561 110.65 66.1509 110.313 66.0992Z" fill="#FFC107"/>
<path d="M126.313 66.0992L122.215 65.4722L120.377 61.553C120.24 61.2603 119.761 61.2603 119.623 61.553L117.787 65.4722L113.688 66.0992C113.351 66.1509 113.217 66.561 113.453 66.803L116.431 69.8598L115.727 74.1812C115.671 74.5245 116.037 74.7821 116.34 74.6135L120.001 72.5872L123.662 74.6141C123.962 74.781 124.331 74.5284 124.275 74.1818L123.571 69.8604L126.548 66.8036C126.785 66.561 126.65 66.1509 126.313 66.0992Z" fill="#FFC107"/>
<path d="M142.313 66.0992L138.215 65.4722L136.377 61.553C136.24 61.2603 135.761 61.2603 135.623 61.553L133.787 65.4722L129.688 66.0992C129.351 66.1509 129.217 66.561 129.453 66.803L132.431 69.8598L131.727 74.1812C131.671 74.5245 132.037 74.7821 132.34 74.6135L136.001 72.5872L139.662 74.6141C139.962 74.781 140.331 74.5284 140.275 74.1818L139.571 69.8604L142.548 66.8036C142.785 66.561 142.65 66.1509 142.313 66.0992Z" fill="#FFC107"/>
<path d="M158.313 66.0992L154.215 65.4722L152.377 61.553C152.24 61.2603 151.761 61.2603 151.623 61.553L149.787 65.4722L145.688 66.0992C145.351 66.1509 145.217 66.561 145.453 66.803L148.431 69.8598L147.727 74.1812C147.671 74.5245 148.037 74.7821 148.34 74.6135L152.001 72.5872L155.662 74.6141C155.962 74.781 156.331 74.5284 156.275 74.1818L155.571 69.8604L158.548 66.8036C158.785 66.561 158.65 66.1509 158.313 66.0992Z" fill="#FFC107"/>
<path d="M174.313 66.0992L170.215 65.4722L168.377 61.553C168.24 61.2603 167.761 61.2603 167.623 61.553L165.787 65.4722L161.688 66.0992C161.351 66.1509 161.217 66.561 161.453 66.803L164.431 69.8598L163.727 74.1812C163.671 74.5245 164.037 74.7821 164.34 74.6135L168.001 72.5872L171.662 74.6141C171.962 74.781 172.331 74.5284 172.275 74.1818L171.571 69.8604L174.548 66.8036C174.785 66.561 174.65 66.1509 174.313 66.0992Z" fill="#FFC107"/>
</g>
<defs>
<filter id="filter0_d_6_340" x="0" y="0" width="330" height="134" filterUnits="userSpaceOnUse" color-interpolation-filters="sRGB">
<feFlood flood-opacity="0" result="BackgroundImageFix"/>
<feColorMatrix in="SourceAlpha" type="matrix" values="0 0 0 0 0 0 0 0 0 0 0 0 0 0 0 0 0 0 127 0" result="hardAlpha"/>
<feOffset dy="12"/>
<feGaussianBlur stdDeviation="16"/>
<feComposite in2="hardAlpha" operator="out"/>
<feColorMatrix type="matrix" values="0 0 0 0 0.247059 0 0 0 0 0.501961 0 0 0 0 0.941176 0 0 0 0.08 0"/>
<feBlend mode="normal" in2="BackgroundImageFix" result="effect1_dropShadow_6_340"/>
<feBlend mode="normal" in="SourceGraphic" in2="effect1_dropShadow_6_340" result="shape"/>
</filter>
<filter id="filter1_di_6_340" x="29" y="19" width="70" height="70" filterUnits="userSpaceOnUse" color-interpolation-filters="sRGB">
<feFlood flood-opacity="0" result="BackgroundImageFix"/>
<feColorMatrix in="SourceAlpha" type="matrix" values="0 0 0 0 0 0 0 0 0 0 0 0 0 0 0 0 0 0 127 0" result="hardAlpha"/>
<feOffset dy="4"/>
<feGaussianBlur stdDeviation="9.5"/>
<feComposite in2="hardAlpha" operator="out"/>
<feColorMatrix type="matrix" values="0 0 0 0 0.0862745 0 0 0 0 0.470588 0 0 0 0 0.94902 0 0 0 0.2 0"/>
<feBlend mode="normal" in2="BackgroundImageFix" result="effect1_dropShadow_6_340"/>
<feBlend mode="normal" in="SourceGraphic" in2="effect1_dropShadow_6_340" result="shape"/>
<feColorMatrix in="SourceAlpha" type="matrix" values="0 0 0 0 0 0 0 0 0 0 0 0 0 0 0 0 0 0 127 0" result="hardAlpha"/>
<feOffset dy="4"/>
<feGaussianBlur stdDeviation="2"/>
<feComposite in2="hardAlpha" operator="arithmetic" k2="-1" k3="1"/>
<feColorMatrix type="matrix" values="0 0 0 0 0 0 0 0 0 0 0 0 0 0 0 0 0 0 0.12 0"/>
<feBlend mode="normal" in2="shape" result="effect2_innerShadow_6_340"/>
</filter>
<linearGradient id="paint0_linear_6_340" x1="45.509" y1="21.451" x2="118.238" y2="29.2758" gradientUnits="userSpaceOnUse">
<stop stop-color="#3A8EF6"/>
<stop offset="1" stop-color="#6F3AFA"/>
</linearGradient>
</defs>
</svg>
