<?xml version="1.0" encoding="iso-8859-1"?>
<!-- Generator: Adobe Illustrator 19.0.0, SVG Export Plug-In . SVG Version: 6.00 Build 0)  -->
<svg version="1.1" id="Layer_1" xmlns="http://www.w3.org/2000/svg" xmlns:xlink="http://www.w3.org/1999/xlink" x="0px" y="0px"
	 viewBox="0 0 512 512" style="enable-background:new 0 0 512 512;" xml:space="preserve">
<path style="fill:#DEDEE0;" d="M387.885,155.134c-38.5,0-69.822,31.323-69.822,69.822c0,30.341,19.458,56.209,46.548,65.818v89.341
	c0,47.055-38.282,85.337-85.337,85.337s-85.337-38.282-85.337-85.337V245.888c53.05-10.813,93.095-57.829,93.095-114.028V23.274
	C287.032,10.42,276.611,0,263.758,0H217.21c-12.853,0-23.274,10.42-23.274,23.274c0,12.855,10.42,23.274,23.274,23.274h23.274
	v85.313c0,37.198-29.24,67.688-65.943,69.708v45.306h-27.153v133.24c0,72.721,59.164,131.885,131.885,131.885
	s131.885-59.164,131.885-131.885v-89.341c27.089-9.607,46.548-35.477,46.548-65.818
	C457.707,186.458,426.386,155.134,387.885,155.134z"/>
<path style="fill:#D6D5D8;" d="M174.542,201.569c-1.285,0.071-2.577,0.113-3.879,0.113c-38.5,0-69.822-31.322-69.822-69.822V46.548
	h23.274c12.853,0,23.274-10.419,23.274-23.274C147.389,10.42,136.968,0,124.115,0H77.567C64.714,0,54.293,10.42,54.293,23.274
	V131.86c0,56.199,40.045,103.215,93.095,114.028v0.987h27.153V201.569z"/>
<path id="SVGCleanerId_0" style="fill:#77757F;" d="M387.885,201.682c12.835,0,23.274,10.441,23.274,23.274
	c0,12.833-10.439,23.274-23.274,23.274c-12.833,0-23.274-10.441-23.274-23.274C364.611,212.124,375.052,201.682,387.885,201.682z"/>
<g>
	<path id="SVGCleanerId_0_1_" style="fill:#77757F;" d="M387.885,201.682c12.835,0,23.274,10.441,23.274,23.274
		c0,12.833-10.439,23.274-23.274,23.274c-12.833,0-23.274-10.441-23.274-23.274C364.611,212.124,375.052,201.682,387.885,201.682z"
		/>
</g>
<g>
</g>
<g>
</g>
<g>
</g>
<g>
</g>
<g>
</g>
<g>
</g>
<g>
</g>
<g>
</g>
<g>
</g>
<g>
</g>
<g>
</g>
<g>
</g>
<g>
</g>
<g>
</g>
<g>
</g>
</svg>
